<?xml version="1.0" standalone="no"?>
<svg width="1056" height="816" xmlns="http://www.w3.org/2000/svg" id="svgvm0"><g transform="translate(5,5)" style="font-family: sans-serif;"><g><g transform="translate(0, 0)"><g transform="translate(0,5)"><rect class="header-box" width="509.5897435897436" height="86" stroke="black" fill="white" rx="5"/><rect class="label-cover" x="8" y="-10" width="34.703125" height="18" fill="white" rx="5"/><text class="header-box-label" x="10" font-size="12" y="3">about</text><g class="header-box-content" transform="translate(5, 0)"><g transform="translate(0, 4.095238095238102)"><text font-size="28"><tspan x="4" y="47.4047619047619">Oldsmar cyberattack</tspan></text></g></g></g></g><g transform="translate(536.4102564102565, 0)"><g transform="translate(0,5)"><rect class="header-box" width="509.5897435897436" height="86" stroke="black" fill="white" rx="5"/><rect class="label-cover" x="8" y="-10" width="43.6875" height="18" fill="white" rx="5"/><text class="header-box-label" x="10" font-size="12" y="3">domain</text><g class="header-box-content" transform="translate(5, 0)"><g transform="translate(0, 4.095238095238102)"><text font-size="28"><tspan x="4" y="47.4047619047619">ICS ATT&amp;CK v8</tspan></text></g></g></g></g></g><g transform="translate(0,97)"><rect class="tactic-header-background" width="1046" height="44.375" fill="#dddddd" stroke="#6B7279"/><g><g class="tactic initial-access-ics" transform="translate(0, 0)"><g class="techniques"><g class="technique T0810" transform="translate(0, 44.375)"><rect class="cell" height="44.375" width="86.36697247706422" fill="white" stroke="#6B7279"/><polygon class="sidebar" transform="translate(0, 44.375)" points="0,0 12,0 12,0" fill="#6B7279" visibility="hidden"/><text font-size="11.363211009174313" fill="black"><tspan x="4" y="11.229166666666668">Data</tspan><tspan x="4" y="25.6875">Historian</tspan><tspan x="4" y="40.145833333333336">Compromise</tspan></text></g><g class="technique T0817" transform="translate(0, 88.75)"><rect class="cell" height="44.375" width="86.36697247706422" fill="white" stroke="#6B7279"/><polygon class="sidebar" transform="translate(0, 44.375)" points="0,0 12,0 12,0" fill="#6B7279" visibility="hidden"/><text font-size="11.363211009174313" fill="black"><tspan x="4" y="18.4375">Drive-by</tspan><tspan x="4" y="32.9375">Compromise</tspan></text></g><g class="technique T0818" transform="translate(0, 133.125)"><rect class="cell" height="44.375" width="86.36697247706422" fill="#74c476" stroke="#6B7279"/><polygon class="sidebar" transform="translate(0, 44.375)" points="0,0 12,0 12,0" fill="#6B7279" visibility="hidden"/><text font-size="10.330191826522102" fill="black"><tspan x="4" y="11.229166666666668">Engineering</tspan><tspan x="4" y="25.6875">Workstation</tspan><tspan x="4" y="40.145833333333336">Compromise</tspan></text></g><g class="technique T0819" transform="translate(0, 177.5)"><rect class="cell" height="44.375" width="86.36697247706422" fill="#74c476" stroke="#6B7279"/><polygon class="sidebar" transform="translate(0, 44.375)" points="0,0 12,0 12,0" fill="#6B7279" visibility="hidden"/><text font-size="8.740931545518702" fill="black"><tspan x="4" y="10.229166666666668">Exploit</tspan><tspan x="4" y="24.6875">Public-Facing</tspan><tspan x="4" y="39.145833333333336">Application</tspan></text></g><g class="technique T0822" transform="translate(0, 221.875)"><rect class="cell" height="44.375" width="86.36697247706422" fill="#74c476" stroke="#6B7279"/><polygon class="sidebar" transform="translate(0, 44.375)" points="0,0 12,0 12,0" fill="#6B7279" visibility="hidden"/><text font-size="11.833333333333334" fill="black"><tspan x="4" y="11.229166666666668">External</tspan><tspan x="4" y="25.6875">Remote</tspan><tspan x="4" y="40.145833333333336">Services</tspan></text></g><g class="technique T0883" transform="translate(0, 266.25)"><rect class="cell" height="44.375" width="86.36697247706422" fill="white" stroke="#6B7279"/><polygon class="sidebar" transform="translate(0, 44.375)" points="0,0 12,0 12,0" fill="#6B7279" visibility="hidden"/><text font-size="11.363211009174313" fill="black"><tspan x="4" y="11.229166666666668">Internet</tspan><tspan x="4" y="25.6875">Accessible</tspan><tspan x="4" y="40.145833333333336">Device</tspan></text></g><g class="technique T0847" transform="translate(0, 310.625)"><rect class="cell" height="44.375" width="86.36697247706422" fill="white" stroke="#6B7279"/><polygon class="sidebar" transform="translate(0, 44.375)" points="0,0 12,0 12,0" fill="#6B7279" visibility="hidden"/><text font-size="8.875" fill="black"><tspan x="4" y="8.421875">Replication</tspan><tspan x="4" y="19.265625">Through</tspan><tspan x="4" y="30.109375">Removable</tspan><tspan x="4" y="40.953125">Media</tspan></text></g><g class="technique T0865" transform="translate(0, 355)"><rect class="cell" height="44.375" width="86.36697247706422" fill="white" stroke="#6B7279"/><polygon class="sidebar" transform="translate(0, 44.375)" points="0,0 12,0 12,0" fill="#6B7279" visibility="hidden"/><text font-size="8.740931545518702" fill="black"><tspan x="4" y="17.4375">Spearphishing</tspan><tspan x="4" y="31.9375">Attachment</tspan></text></g><g class="technique T0862" transform="translate(0, 399.375)"><rect class="cell" height="44.375" width="86.36697247706422" fill="white" stroke="#6B7279"/><polygon class="sidebar" transform="translate(0, 44.375)" points="0,0 12,0 12,0" fill="#6B7279" visibility="hidden"/><text font-size="11.363211009174313" fill="black"><tspan x="4" y="11.229166666666668">Supply</tspan><tspan x="4" y="25.6875">Chain</tspan><tspan x="4" y="40.145833333333336">Compromise</tspan></text></g><g class="technique T0860" transform="translate(0, 443.75)"><rect class="cell" height="44.375" width="86.36697247706422" fill="white" stroke="#6B7279"/><polygon class="sidebar" transform="translate(0, 44.375)" points="0,0 12,0 12,0" fill="#6B7279" visibility="hidden"/><text font-size="11.363211009174313" fill="black"><tspan x="4" y="18.4375">Wireless</tspan><tspan x="4" y="32.9375">Compromise</tspan></text></g></g><g class="subtechniques"/><g class="tactic-label"><text font-size="12" fill="black" font-weight="bold"><tspan text-anchor="middle" x="43.18348623853211" y="18.4375">Initial</tspan><tspan text-anchor="middle" x="43.18348623853211" y="32.9375">Access</tspan></text></g></g><g class="tactic execution-ics" transform="translate(95.96330275229357, 0)"><g class="techniques"><g class="technique T0875" transform="translate(0, 44.375)"><rect class="cell" height="44.375" width="86.36697247706422" fill="white" stroke="#6B7279"/><polygon class="sidebar" transform="translate(0, 44.375)" points="0,0 12,0 12,0" fill="#6B7279" visibility="hidden"/><text font-size="11.833333333333334" fill="black"><tspan x="4" y="11.229166666666668">Change</tspan><tspan x="4" y="25.6875">Program</tspan><tspan x="4" y="40.145833333333336">State</tspan></text></g><g class="technique T0807" transform="translate(0, 88.75)"><rect class="cell" height="44.375" width="86.36697247706422" fill="white" stroke="#6B7279"/><polygon class="sidebar" transform="translate(0, 44.375)" points="0,0 12,0 12,0" fill="#6B7279" visibility="hidden"/><text font-size="9.46934250764526" fill="black"><tspan x="4" y="17.4375">Command-Line</tspan><tspan x="4" y="31.9375">Interface</tspan></text></g><g class="technique T0871" transform="translate(0, 133.125)"><rect class="cell" height="44.375" width="86.36697247706422" fill="white" stroke="#6B7279"/><polygon class="sidebar" transform="translate(0, 44.375)" points="0,0 12,0 12,0" fill="#6B7279" visibility="hidden"/><text font-size="11.833333333333334" fill="black"><tspan x="4" y="11.229166666666668">Execution</tspan><tspan x="4" y="25.6875">through</tspan><tspan x="4" y="40.145833333333336">API</tspan></text></g><g class="technique T0823" transform="translate(0, 177.5)"><rect class="cell" height="44.375" width="86.36697247706422" fill="#fd8d3c" stroke="#6B7279"/><polygon class="sidebar" transform="translate(0, 44.375)" points="0,0 12,0 12,0" fill="#6B7279" visibility="hidden"/><text font-size="11.833333333333334" fill="black"><tspan x="4" y="11.229166666666668">Graphical</tspan><tspan x="4" y="25.6875">User</tspan><tspan x="4" y="40.145833333333336">Interface</tspan></text></g><g class="technique T0830" transform="translate(0, 221.875)"><rect class="cell" height="44.375" width="86.36697247706422" fill="white" stroke="#6B7279"/><polygon class="sidebar" transform="translate(0, 44.375)" points="0,0 12,0 12,0" fill="#6B7279" visibility="hidden"/><text font-size="11.833333333333334" fill="black"><tspan x="4" y="11.229166666666668">Man</tspan><tspan x="4" y="25.6875">in the</tspan><tspan x="4" y="40.145833333333336">Middle</tspan></text></g><g class="technique T0844" transform="translate(0, 266.25)"><rect class="cell" height="44.375" width="86.36697247706422" fill="white" stroke="#6B7279"/><polygon class="sidebar" transform="translate(0, 44.375)" points="0,0 12,0 12,0" fill="#6B7279" visibility="hidden"/><text font-size="9.46934250764526" fill="black"><tspan x="4" y="10.229166666666668">Program</tspan><tspan x="4" y="24.6875">Organization</tspan><tspan x="4" y="39.145833333333336">Units</tspan></text></g><g class="technique T0873" transform="translate(0, 310.625)"><rect class="cell" height="44.375" width="86.36697247706422" fill="white" stroke="#6B7279"/><polygon class="sidebar" transform="translate(0, 44.375)" points="0,0 12,0 12,0" fill="#6B7279" visibility="hidden"/><text font-size="11.833333333333334" fill="black"><tspan x="4" y="11.229166666666668">Project</tspan><tspan x="4" y="25.6875">File</tspan><tspan x="4" y="40.145833333333336">Infection</tspan></text></g><g class="technique T0853" transform="translate(0, 355)"><rect class="cell" height="44.375" width="86.36697247706422" fill="white" stroke="#6B7279"/><polygon class="sidebar" transform="translate(0, 44.375)" points="0,0 12,0 12,0" fill="#6B7279" visibility="hidden"/><text font-size="12" fill="black"><tspan x="4" y="25.6875">Scripting</tspan></text></g><g class="technique T0863" transform="translate(0, 399.375)"><rect class="cell" height="44.375" width="86.36697247706422" fill="white" stroke="#6B7279"/><polygon class="sidebar" transform="translate(0, 44.375)" points="0,0 12,0 12,0" fill="#6B7279" visibility="hidden"/><text font-size="12" fill="black"><tspan x="4" y="18.4375">User</tspan><tspan x="4" y="32.9375">Execution</tspan></text></g></g><g class="subtechniques"/><g class="tactic-label"><text font-size="12" fill="black" font-weight="bold"><tspan text-anchor="middle" x="43.18348623853211" y="25.6875">Execution</tspan></text></g></g><g class="tactic persistence-ics" transform="translate(191.92660550458714, 0)"><g class="techniques"><g class="technique T0874" transform="translate(0, 44.375)"><rect class="cell" height="44.375" width="86.36697247706422" fill="white" stroke="#6B7279"/><polygon class="sidebar" transform="translate(0, 44.375)" points="0,0 12,0 12,0" fill="#6B7279" visibility="hidden"/><text font-size="12" fill="black"><tspan x="4" y="25.6875">Hooking</tspan></text></g><g class="technique T0839" transform="translate(0, 88.75)"><rect class="cell" height="44.375" width="86.36697247706422" fill="white" stroke="#6B7279"/><polygon class="sidebar" transform="translate(0, 44.375)" points="0,0 12,0 12,0" fill="#6B7279" visibility="hidden"/><text font-size="12" fill="black"><tspan x="4" y="18.4375">Module</tspan><tspan x="4" y="32.9375">Firmware</tspan></text></g><g class="technique T0843" transform="translate(0, 133.125)"><rect class="cell" height="44.375" width="86.36697247706422" fill="white" stroke="#6B7279"/><polygon class="sidebar" transform="translate(0, 44.375)" points="0,0 12,0 12,0" fill="#6B7279" visibility="hidden"/><text font-size="12" fill="black"><tspan x="4" y="18.4375">Program</tspan><tspan x="4" y="32.9375">Download</tspan></text></g><g class="technique T0873" transform="translate(0, 177.5)"><rect class="cell" height="44.375" width="86.36697247706422" fill="white" stroke="#6B7279"/><polygon class="sidebar" transform="translate(0, 44.375)" points="0,0 12,0 12,0" fill="#6B7279" visibility="hidden"/><text font-size="11.833333333333334" fill="black"><tspan x="4" y="11.229166666666668">Project</tspan><tspan x="4" y="25.6875">File</tspan><tspan x="4" y="40.145833333333336">Infection</tspan></text></g><g class="technique T0857" transform="translate(0, 221.875)"><rect class="cell" height="44.375" width="86.36697247706422" fill="white" stroke="#6B7279"/><polygon class="sidebar" transform="translate(0, 44.375)" points="0,0 12,0 12,0" fill="#6B7279" visibility="hidden"/><text font-size="12" fill="black"><tspan x="4" y="18.4375">System</tspan><tspan x="4" y="32.9375">Firmware</tspan></text></g><g class="technique T0859" transform="translate(0, 266.25)"><rect class="cell" height="44.375" width="86.36697247706422" fill="#6baed6" stroke="#6B7279"/><polygon class="sidebar" transform="translate(0, 44.375)" points="0,0 12,0 12,0" fill="#6B7279" visibility="hidden"/><text font-size="12" fill="black"><tspan x="4" y="18.4375">Valid</tspan><tspan x="4" y="32.9375">Accounts</tspan></text></g></g><g class="subtechniques"/><g class="tactic-label"><text font-size="10.330191826522102" fill="black" font-weight="bold"><tspan text-anchor="middle" x="43.18348623853211" y="25.6875">Persistence</tspan></text></g></g><g class="tactic evasion-ics" transform="translate(287.88990825688074, 0)"><g class="techniques"><g class="technique T0820" transform="translate(0, 44.375)"><rect class="cell" height="44.375" width="86.36697247706422" fill="white" stroke="#6B7279"/><polygon class="sidebar" transform="translate(0, 44.375)" points="0,0 12,0 12,0" fill="#6B7279" visibility="hidden"/><text font-size="9.46934250764526" fill="black"><tspan x="4" y="17.4375">Exploitation</tspan><tspan x="4" y="31.9375">for Evasion</tspan></text></g><g class="technique T0872" transform="translate(0, 88.75)"><rect class="cell" height="44.375" width="86.36697247706422" fill="white" stroke="#6B7279"/><polygon class="sidebar" transform="translate(0, 44.375)" points="0,0 12,0 12,0" fill="#6B7279" visibility="hidden"/><text font-size="11.833333333333334" fill="black"><tspan x="4" y="11.229166666666668">Indicator</tspan><tspan x="4" y="25.6875">Removal</tspan><tspan x="4" y="40.145833333333336">on Host</tspan></text></g><g class="technique T0849" transform="translate(0, 133.125)"><rect class="cell" height="44.375" width="86.36697247706422" fill="white" stroke="#6B7279"/><polygon class="sidebar" transform="translate(0, 44.375)" points="0,0 12,0 12,0" fill="#6B7279" visibility="hidden"/><text font-size="9.46934250764526" fill="black"><tspan x="4" y="24.6875">Masquerading</tspan></text></g><g class="technique T0848" transform="translate(0, 177.5)"><rect class="cell" height="44.375" width="86.36697247706422" fill="white" stroke="#6B7279"/><polygon class="sidebar" transform="translate(0, 44.375)" points="0,0 12,0 12,0" fill="#6B7279" visibility="hidden"/><text font-size="11.833333333333334" fill="black"><tspan x="4" y="11.229166666666668">Rogue</tspan><tspan x="4" y="25.6875">Master</tspan><tspan x="4" y="40.145833333333336">Device</tspan></text></g><g class="technique T0851" transform="translate(0, 221.875)"><rect class="cell" height="44.375" width="86.36697247706422" fill="white" stroke="#6B7279"/><polygon class="sidebar" transform="translate(0, 44.375)" points="0,0 12,0 12,0" fill="#6B7279" visibility="hidden"/><text font-size="12" fill="black"><tspan x="4" y="25.6875">Rootkit</tspan></text></g><g class="technique T0856" transform="translate(0, 266.25)"><rect class="cell" height="44.375" width="86.36697247706422" fill="white" stroke="#6B7279"/><polygon class="sidebar" transform="translate(0, 44.375)" points="0,0 12,0 12,0" fill="#6B7279" visibility="hidden"/><text font-size="11.833333333333334" fill="black"><tspan x="4" y="11.229166666666668">Spoof</tspan><tspan x="4" y="25.6875">Reporting</tspan><tspan x="4" y="40.145833333333336">Message</tspan></text></g><g class="technique T0858" transform="translate(0, 310.625)"><rect class="cell" height="44.375" width="86.36697247706422" fill="white" stroke="#6B7279"/><polygon class="sidebar" transform="translate(0, 44.375)" points="0,0 12,0 12,0" fill="#6B7279" visibility="hidden"/><text font-size="8.116579292267366" fill="black"><tspan x="4" y="17.4375">Utilize/Change</tspan><tspan x="4" y="31.9375">Operating Mode</tspan></text></g></g><g class="subtechniques"/><g class="tactic-label"><text font-size="12" fill="black" font-weight="bold"><tspan text-anchor="middle" x="43.18348623853211" y="25.6875">Evasion</tspan></text></g></g><g class="tactic discovery-ics" transform="translate(383.8532110091743, 0)"><g class="techniques"><g class="technique T0808" transform="translate(0, 44.375)"><rect class="cell" height="44.375" width="86.36697247706422" fill="white" stroke="#6B7279"/><polygon class="sidebar" transform="translate(0, 44.375)" points="0,0 12,0 12,0" fill="#6B7279" visibility="hidden"/><text font-size="8.116579292267366" fill="black"><tspan x="4" y="17.4375">Control Device</tspan><tspan x="4" y="31.9375">Identification</tspan></text></g><g class="technique T0824" transform="translate(0, 88.75)"><rect class="cell" height="44.375" width="86.36697247706422" fill="white" stroke="#6B7279"/><polygon class="sidebar" transform="translate(0, 44.375)" points="0,0 12,0 12,0" fill="#6B7279" visibility="hidden"/><text font-size="11.833333333333334" fill="black"><tspan x="4" y="11.229166666666668">I/O</tspan><tspan x="4" y="25.6875">Module</tspan><tspan x="4" y="40.145833333333336">Discovery</tspan></text></g><g class="technique T0840" transform="translate(0, 133.125)"><rect class="cell" height="44.375" width="86.36697247706422" fill="white" stroke="#6B7279"/><polygon class="sidebar" transform="translate(0, 44.375)" points="0,0 12,0 12,0" fill="#6B7279" visibility="hidden"/><text font-size="10.330191826522102" fill="black"><tspan x="4" y="11.229166666666668">Network</tspan><tspan x="4" y="25.6875">Connection</tspan><tspan x="4" y="40.145833333333336">Enumeration</tspan></text></g><g class="technique T0841" transform="translate(0, 177.5)"><rect class="cell" height="44.375" width="86.36697247706422" fill="white" stroke="#6B7279"/><polygon class="sidebar" transform="translate(0, 44.375)" points="0,0 12,0 12,0" fill="#6B7279" visibility="hidden"/><text font-size="11.833333333333334" fill="black"><tspan x="4" y="11.229166666666668">Network</tspan><tspan x="4" y="25.6875">Service</tspan><tspan x="4" y="40.145833333333336">Scanning</tspan></text></g><g class="technique T0842" transform="translate(0, 221.875)"><rect class="cell" height="44.375" width="86.36697247706422" fill="white" stroke="#6B7279"/><polygon class="sidebar" transform="translate(0, 44.375)" points="0,0 12,0 12,0" fill="#6B7279" visibility="hidden"/><text font-size="12" fill="black"><tspan x="4" y="18.4375">Network</tspan><tspan x="4" y="32.9375">Sniffing</tspan></text></g><g class="technique T0846" transform="translate(0, 266.25)"><rect class="cell" height="44.375" width="86.36697247706422" fill="white" stroke="#6B7279"/><polygon class="sidebar" transform="translate(0, 44.375)" points="0,0 12,0 12,0" fill="#6B7279" visibility="hidden"/><text font-size="11.833333333333334" fill="black"><tspan x="4" y="11.229166666666668">Remote</tspan><tspan x="4" y="25.6875">System</tspan><tspan x="4" y="40.145833333333336">Discovery</tspan></text></g><g class="technique T0854" transform="translate(0, 310.625)"><rect class="cell" height="44.375" width="86.36697247706422" fill="white" stroke="#6B7279"/><polygon class="sidebar" transform="translate(0, 44.375)" points="0,0 12,0 12,0" fill="#6B7279" visibility="hidden"/><text font-size="10.330191826522102" fill="black"><tspan x="4" y="11.229166666666668">Serial</tspan><tspan x="4" y="25.6875">Connection</tspan><tspan x="4" y="40.145833333333336">Enumeration</tspan></text></g></g><g class="subtechniques"/><g class="tactic-label"><text font-size="12" fill="black" font-weight="bold"><tspan text-anchor="middle" x="43.18348623853211" y="25.6875">Discovery</tspan></text></g></g><g class="tactic lateral-movement-ics" transform="translate(479.81651376146783, 0)"><g class="techniques"><g class="technique T0812" transform="translate(0, 44.375)"><rect class="cell" height="44.375" width="86.36697247706422" fill="white" stroke="#6B7279"/><polygon class="sidebar" transform="translate(0, 44.375)" points="0,0 12,0 12,0" fill="#6B7279" visibility="hidden"/><text font-size="10.330191826522102" fill="black"><tspan x="4" y="18.4375">Default</tspan><tspan x="4" y="32.9375">Credentials</tspan></text></g><g class="technique T0866" transform="translate(0, 88.75)"><rect class="cell" height="44.375" width="86.36697247706422" fill="white" stroke="#6B7279"/><polygon class="sidebar" transform="translate(0, 44.375)" points="0,0 12,0 12,0" fill="#6B7279" visibility="hidden"/><text font-size="9.46934250764526" fill="black"><tspan x="4" y="10.229166666666668">Exploitation</tspan><tspan x="4" y="24.6875">of Remote</tspan><tspan x="4" y="39.145833333333336">Services</tspan></text></g><g class="technique T0822" transform="translate(0, 133.125)"><rect class="cell" height="44.375" width="86.36697247706422" fill="white" stroke="#6B7279"/><polygon class="sidebar" transform="translate(0, 44.375)" points="0,0 12,0 12,0" fill="#6B7279" visibility="hidden"/><text font-size="11.833333333333334" fill="black"><tspan x="4" y="11.229166666666668">External</tspan><tspan x="4" y="25.6875">Remote</tspan><tspan x="4" y="40.145833333333336">Services</tspan></text></g><g class="technique T0844" transform="translate(0, 177.5)"><rect class="cell" height="44.375" width="86.36697247706422" fill="white" stroke="#6B7279"/><polygon class="sidebar" transform="translate(0, 44.375)" points="0,0 12,0 12,0" fill="#6B7279" visibility="hidden"/><text font-size="9.46934250764526" fill="black"><tspan x="4" y="10.229166666666668">Program</tspan><tspan x="4" y="24.6875">Organization</tspan><tspan x="4" y="39.145833333333336">Units</tspan></text></g><g class="technique T0867" transform="translate(0, 221.875)"><rect class="cell" height="44.375" width="86.36697247706422" fill="white" stroke="#6B7279"/><polygon class="sidebar" transform="translate(0, 44.375)" points="0,0 12,0 12,0" fill="#6B7279" visibility="hidden"/><text font-size="12" fill="black"><tspan x="4" y="18.4375">Remote</tspan><tspan x="4" y="32.9375">File Copy</tspan></text></g><g class="technique T0859" transform="translate(0, 266.25)"><rect class="cell" height="44.375" width="86.36697247706422" fill="white" stroke="#6B7279"/><polygon class="sidebar" transform="translate(0, 44.375)" points="0,0 12,0 12,0" fill="#6B7279" visibility="hidden"/><text font-size="12" fill="black"><tspan x="4" y="18.4375">Valid</tspan><tspan x="4" y="32.9375">Accounts</tspan></text></g></g><g class="subtechniques"/><g class="tactic-label"><text font-size="12" fill="black" font-weight="bold"><tspan text-anchor="middle" x="43.18348623853211" y="18.4375">Lateral</tspan><tspan text-anchor="middle" x="43.18348623853211" y="32.9375">Movement</tspan></text></g></g><g class="tactic collection-ics" transform="translate(575.7798165137615, 0)"><g class="techniques"><g class="technique T0802" transform="translate(0, 44.375)"><rect class="cell" height="44.375" width="86.36697247706422" fill="white" stroke="#6B7279"/><polygon class="sidebar" transform="translate(0, 44.375)" points="0,0 12,0 12,0" fill="#6B7279" visibility="hidden"/><text font-size="11.363211009174313" fill="black"><tspan x="4" y="18.4375">Automated</tspan><tspan x="4" y="32.9375">Collection</tspan></text></g><g class="technique T0811" transform="translate(0, 88.75)"><rect class="cell" height="44.375" width="86.36697247706422" fill="white" stroke="#6B7279"/><polygon class="sidebar" transform="translate(0, 44.375)" points="0,0 12,0 12,0" fill="#6B7279" visibility="hidden"/><text font-size="9.46934250764526" fill="black"><tspan x="4" y="10.229166666666668">Data from</tspan><tspan x="4" y="24.6875">Information</tspan><tspan x="4" y="39.145833333333336">Repositories</tspan></text></g><g class="technique T0868" transform="translate(0, 133.125)"><rect class="cell" height="44.375" width="86.36697247706422" fill="white" stroke="#6B7279"/><polygon class="sidebar" transform="translate(0, 44.375)" points="0,0 12,0 12,0" fill="#6B7279" visibility="hidden"/><text font-size="11.833333333333334" fill="black"><tspan x="4" y="11.229166666666668">Detect</tspan><tspan x="4" y="25.6875">Operating</tspan><tspan x="4" y="40.145833333333336">Mode</tspan></text></g><g class="technique T0870" transform="translate(0, 177.5)"><rect class="cell" height="44.375" width="86.36697247706422" fill="white" stroke="#6B7279"/><polygon class="sidebar" transform="translate(0, 44.375)" points="0,0 12,0 12,0" fill="#6B7279" visibility="hidden"/><text font-size="11.833333333333334" fill="black"><tspan x="4" y="11.229166666666668">Detect</tspan><tspan x="4" y="25.6875">Program</tspan><tspan x="4" y="40.145833333333336">State</tspan></text></g><g class="technique T0877" transform="translate(0, 221.875)"><rect class="cell" height="44.375" width="86.36697247706422" fill="white" stroke="#6B7279"/><polygon class="sidebar" transform="translate(0, 44.375)" points="0,0 12,0 12,0" fill="#6B7279" visibility="hidden"/><text font-size="12" fill="black"><tspan x="4" y="25.6875">I/O Image</tspan></text></g><g class="technique T0825" transform="translate(0, 266.25)"><rect class="cell" height="44.375" width="86.36697247706422" fill="white" stroke="#6B7279"/><polygon class="sidebar" transform="translate(0, 44.375)" points="0,0 12,0 12,0" fill="#6B7279" visibility="hidden"/><text font-size="8.116579292267366" fill="black"><tspan x="4" y="17.4375">Location</tspan><tspan x="4" y="31.9375">Identification</tspan></text></g><g class="technique T0801" transform="translate(0, 310.625)"><rect class="cell" height="44.375" width="86.36697247706422" fill="white" stroke="#6B7279"/><polygon class="sidebar" transform="translate(0, 44.375)" points="0,0 12,0 12,0" fill="#6B7279" visibility="hidden"/><text font-size="11.833333333333334" fill="black"><tspan x="4" y="11.229166666666668">Monitor</tspan><tspan x="4" y="25.6875">Process</tspan><tspan x="4" y="40.145833333333336">State</tspan></text></g><g class="technique T0861" transform="translate(0, 355)"><rect class="cell" height="44.375" width="86.36697247706422" fill="white" stroke="#6B7279"/><polygon class="sidebar" transform="translate(0, 44.375)" points="0,0 12,0 12,0" fill="#6B7279" visibility="hidden"/><text font-size="8.116579292267366" fill="black"><tspan x="4" y="17.4375">Point &amp; Tag</tspan><tspan x="4" y="31.9375">Identification</tspan></text></g><g class="technique T0845" transform="translate(0, 399.375)"><rect class="cell" height="44.375" width="86.36697247706422" fill="white" stroke="#6B7279"/><polygon class="sidebar" transform="translate(0, 44.375)" points="0,0 12,0 12,0" fill="#6B7279" visibility="hidden"/><text font-size="12" fill="black"><tspan x="4" y="18.4375">Program</tspan><tspan x="4" y="32.9375">Upload</tspan></text></g><g class="technique T0850" transform="translate(0, 443.75)"><rect class="cell" height="44.375" width="86.36697247706422" fill="white" stroke="#6B7279"/><polygon class="sidebar" transform="translate(0, 44.375)" points="0,0 12,0 12,0" fill="#6B7279" visibility="hidden"/><text font-size="8.116579292267366" fill="black"><tspan x="4" y="17.4375">Role</tspan><tspan x="4" y="31.9375">Identification</tspan></text></g><g class="technique T0852" transform="translate(0, 488.125)"><rect class="cell" height="44.375" width="86.36697247706422" fill="white" stroke="#6B7279"/><polygon class="sidebar" transform="translate(0, 44.375)" points="0,0 12,0 12,0" fill="#6B7279" visibility="hidden"/><text font-size="12" fill="black"><tspan x="4" y="18.4375">Screen</tspan><tspan x="4" y="32.9375">Capture</tspan></text></g></g><g class="subtechniques"/><g class="tactic-label"><text font-size="11.363211009174313" fill="black" font-weight="bold"><tspan text-anchor="middle" x="43.18348623853211" y="25.6875">Collection</tspan></text></g></g><g class="tactic command-and-control-ics" transform="translate(671.743119266055, 0)"><g class="techniques"><g class="technique T0885" transform="translate(0, 44.375)"><rect class="cell" height="44.375" width="86.36697247706422" fill="white" stroke="#6B7279"/><polygon class="sidebar" transform="translate(0, 44.375)" points="0,0 12,0 12,0" fill="#6B7279" visibility="hidden"/><text font-size="12" fill="black"><tspan x="4" y="18.4375">Commonly</tspan><tspan x="4" y="32.9375">Used Port</tspan></text></g><g class="technique T0884" transform="translate(0, 88.75)"><rect class="cell" height="44.375" width="86.36697247706422" fill="white" stroke="#6B7279"/><polygon class="sidebar" transform="translate(0, 44.375)" points="0,0 12,0 12,0" fill="#6B7279" visibility="hidden"/><text font-size="11.363211009174313" fill="black"><tspan x="4" y="18.4375">Connection</tspan><tspan x="4" y="32.9375">Proxy</tspan></text></g><g class="technique T0869" transform="translate(0, 133.125)"><rect class="cell" height="44.375" width="86.36697247706422" fill="white" stroke="#6B7279"/><polygon class="sidebar" transform="translate(0, 44.375)" points="0,0 12,0 12,0" fill="#6B7279" visibility="hidden"/><text font-size="8.875" fill="black"><tspan x="4" y="8.421875">Standard</tspan><tspan x="4" y="19.265625">Application</tspan><tspan x="4" y="30.109375">Layer</tspan><tspan x="4" y="40.953125">Protocol</tspan></text></g></g><g class="subtechniques"/><g class="tactic-label"><text font-size="11.833333333333334" fill="black" font-weight="bold"><tspan text-anchor="middle" x="43.18348623853211" y="11.229166666666668">Command</tspan><tspan text-anchor="middle" x="43.18348623853211" y="25.6875">and</tspan><tspan text-anchor="middle" x="43.18348623853211" y="40.145833333333336">Control</tspan></text></g></g><g class="tactic inhibit-response-function" transform="translate(767.7064220183486, 0)"><g class="techniques"><g class="technique T0800" transform="translate(0, 44.375)"><rect class="cell" height="44.375" width="86.36697247706422" fill="white" stroke="#6B7279"/><polygon class="sidebar" transform="translate(0, 44.375)" points="0,0 12,0 12,0" fill="#6B7279" visibility="hidden"/><text font-size="10.330191826522102" fill="black"><tspan x="4" y="11.229166666666668">Activate</tspan><tspan x="4" y="25.6875">Firmware</tspan><tspan x="4" y="40.145833333333336">Update Mode</tspan></text></g><g class="technique T0878" transform="translate(0, 88.75)"><rect class="cell" height="44.375" width="86.36697247706422" fill="white" stroke="#6B7279"/><polygon class="sidebar" transform="translate(0, 44.375)" points="0,0 12,0 12,0" fill="#6B7279" visibility="hidden"/><text font-size="10.330191826522102" fill="black"><tspan x="4" y="18.4375">Alarm</tspan><tspan x="4" y="32.9375">Suppression</tspan></text></g><g class="technique T0803" transform="translate(0, 133.125)"><rect class="cell" height="44.375" width="86.36697247706422" fill="white" stroke="#6B7279"/><polygon class="sidebar" transform="translate(0, 44.375)" points="0,0 12,0 12,0" fill="#6B7279" visibility="hidden"/><text font-size="11.833333333333334" fill="black"><tspan x="4" y="11.229166666666668">Block</tspan><tspan x="4" y="25.6875">Command</tspan><tspan x="4" y="40.145833333333336">Message</tspan></text></g><g class="technique T0804" transform="translate(0, 177.5)"><rect class="cell" height="44.375" width="86.36697247706422" fill="white" stroke="#6B7279"/><polygon class="sidebar" transform="translate(0, 44.375)" points="0,0 12,0 12,0" fill="#6B7279" visibility="hidden"/><text font-size="11.833333333333334" fill="black"><tspan x="4" y="11.229166666666668">Block</tspan><tspan x="4" y="25.6875">Reporting</tspan><tspan x="4" y="40.145833333333336">Message</tspan></text></g><g class="technique T0805" transform="translate(0, 221.875)"><rect class="cell" height="44.375" width="86.36697247706422" fill="white" stroke="#6B7279"/><polygon class="sidebar" transform="translate(0, 44.375)" points="0,0 12,0 12,0" fill="#6B7279" visibility="hidden"/><text font-size="11.833333333333334" fill="black"><tspan x="4" y="11.229166666666668">Block</tspan><tspan x="4" y="25.6875">Serial</tspan><tspan x="4" y="40.145833333333336">COM</tspan></text></g><g class="technique T0809" transform="translate(0, 266.25)"><rect class="cell" height="44.375" width="86.36697247706422" fill="white" stroke="#6B7279"/><polygon class="sidebar" transform="translate(0, 44.375)" points="0,0 12,0 12,0" fill="#6B7279" visibility="hidden"/><text font-size="10.330191826522102" fill="black"><tspan x="4" y="18.4375">Data</tspan><tspan x="4" y="32.9375">Destruction</tspan></text></g><g class="technique T0814" transform="translate(0, 310.625)"><rect class="cell" height="44.375" width="86.36697247706422" fill="white" stroke="#6B7279"/><polygon class="sidebar" transform="translate(0, 44.375)" points="0,0 12,0 12,0" fill="#6B7279" visibility="hidden"/><text font-size="12" fill="black"><tspan x="4" y="18.4375">Denial of</tspan><tspan x="4" y="32.9375">Service</tspan></text></g><g class="technique T0816" transform="translate(0, 355)"><rect class="cell" height="44.375" width="86.36697247706422" fill="white" stroke="#6B7279"/><polygon class="sidebar" transform="translate(0, 44.375)" points="0,0 12,0 12,0" fill="#6B7279" visibility="hidden"/><text font-size="7.102006880733945" fill="black"><tspan x="4" y="17.4375">Device</tspan><tspan x="4" y="31.9375">Restart/Shutdown</tspan></text></g><g class="technique T0835" transform="translate(0, 399.375)"><rect class="cell" height="44.375" width="86.36697247706422" fill="white" stroke="#6B7279"/><polygon class="sidebar" transform="translate(0, 44.375)" points="0,0 12,0 12,0" fill="#6B7279" visibility="hidden"/><text font-size="11.363211009174313" fill="black"><tspan x="4" y="18.4375">Manipulate</tspan><tspan x="4" y="32.9375">I/O Image</tspan></text></g><g class="technique T0838" transform="translate(0, 443.75)"><rect class="cell" height="44.375" width="86.36697247706422" fill="white" stroke="#6B7279"/><polygon class="sidebar" transform="translate(0, 44.375)" points="0,0 12,0 12,0" fill="#6B7279" visibility="hidden"/><text font-size="11.833333333333334" fill="black"><tspan x="4" y="11.229166666666668">Modify</tspan><tspan x="4" y="25.6875">Alarm</tspan><tspan x="4" y="40.145833333333336">Settings</tspan></text></g><g class="technique T0833" transform="translate(0, 488.125)"><rect class="cell" height="44.375" width="86.36697247706422" fill="white" stroke="#6B7279"/><polygon class="sidebar" transform="translate(0, 44.375)" points="0,0 12,0 12,0" fill="#6B7279" visibility="hidden"/><text font-size="11.833333333333334" fill="black"><tspan x="4" y="11.229166666666668">Modify</tspan><tspan x="4" y="25.6875">Control</tspan><tspan x="4" y="40.145833333333336">Logic</tspan></text></g><g class="technique T0843" transform="translate(0, 532.5)"><rect class="cell" height="44.375" width="86.36697247706422" fill="white" stroke="#6B7279"/><polygon class="sidebar" transform="translate(0, 44.375)" points="0,0 12,0 12,0" fill="#6B7279" visibility="hidden"/><text font-size="12" fill="black"><tspan x="4" y="18.4375">Program</tspan><tspan x="4" y="32.9375">Download</tspan></text></g><g class="technique T0851" transform="translate(0, 576.875)"><rect class="cell" height="44.375" width="86.36697247706422" fill="white" stroke="#6B7279"/><polygon class="sidebar" transform="translate(0, 44.375)" points="0,0 12,0 12,0" fill="#6B7279" visibility="hidden"/><text font-size="12" fill="black"><tspan x="4" y="25.6875">Rootkit</tspan></text></g><g class="technique T0857" transform="translate(0, 621.25)"><rect class="cell" height="44.375" width="86.36697247706422" fill="white" stroke="#6B7279"/><polygon class="sidebar" transform="translate(0, 44.375)" points="0,0 12,0 12,0" fill="#6B7279" visibility="hidden"/><text font-size="12" fill="black"><tspan x="4" y="18.4375">System</tspan><tspan x="4" y="32.9375">Firmware</tspan></text></g><g class="technique T0858" transform="translate(0, 665.625)"><rect class="cell" height="44.375" width="86.36697247706422" fill="white" stroke="#6B7279"/><polygon class="sidebar" transform="translate(0, 44.375)" points="0,0 12,0 12,0" fill="#6B7279" visibility="hidden"/><text font-size="8.116579292267366" fill="black"><tspan x="4" y="17.4375">Utilize/Change</tspan><tspan x="4" y="31.9375">Operating Mode</tspan></text></g></g><g class="subtechniques"/><g class="tactic-label"><text font-size="11.833333333333334" fill="black" font-weight="bold"><tspan text-anchor="middle" x="43.18348623853211" y="11.229166666666668">Inhibit</tspan><tspan text-anchor="middle" x="43.18348623853211" y="25.6875">Response</tspan><tspan text-anchor="middle" x="43.18348623853211" y="40.145833333333336">Function</tspan></text></g></g><g class="tactic impair-process-control" transform="translate(863.6697247706421, 0)"><g class="techniques"><g class="technique T0806" transform="translate(0, 44.375)"><rect class="cell" height="44.375" width="86.36697247706422" fill="white" stroke="#6B7279"/><polygon class="sidebar" transform="translate(0, 44.375)" points="0,0 12,0 12,0" fill="#6B7279" visibility="hidden"/><text font-size="12" fill="black"><tspan x="4" y="18.4375">Brute</tspan><tspan x="4" y="32.9375">Force I/O</tspan></text></g><g class="technique T0875" transform="translate(0, 88.75)"><rect class="cell" height="44.375" width="86.36697247706422" fill="white" stroke="#6B7279"/><polygon class="sidebar" transform="translate(0, 44.375)" points="0,0 12,0 12,0" fill="#6B7279" visibility="hidden"/><text font-size="11.833333333333334" fill="black"><tspan x="4" y="11.229166666666668">Change</tspan><tspan x="4" y="25.6875">Program</tspan><tspan x="4" y="40.145833333333336">State</tspan></text></g><g class="technique T0849" transform="translate(0, 133.125)"><rect class="cell" height="44.375" width="86.36697247706422" fill="white" stroke="#6B7279"/><polygon class="sidebar" transform="translate(0, 44.375)" points="0,0 12,0 12,0" fill="#6B7279" visibility="hidden"/><text font-size="9.46934250764526" fill="black"><tspan x="4" y="24.6875">Masquerading</tspan></text></g><g class="technique T0833" transform="translate(0, 177.5)"><rect class="cell" height="44.375" width="86.36697247706422" fill="white" stroke="#6B7279"/><polygon class="sidebar" transform="translate(0, 44.375)" points="0,0 12,0 12,0" fill="#6B7279" visibility="hidden"/><text font-size="11.833333333333334" fill="black"><tspan x="4" y="11.229166666666668">Modify</tspan><tspan x="4" y="25.6875">Control</tspan><tspan x="4" y="40.145833333333336">Logic</tspan></text></g><g class="technique T0836" transform="translate(0, 221.875)"><rect class="cell" height="44.375" width="86.36697247706422" fill="#756bb1" stroke="#6B7279"/><polygon class="sidebar" transform="translate(0, 44.375)" points="0,0 12,0 12,0" fill="#6B7279" visibility="hidden"/><text font-size="12" fill="white"><tspan x="4" y="18.4375">Modify</tspan><tspan x="4" y="32.9375">Parameter</tspan></text></g><g class="technique T0839" transform="translate(0, 266.25)"><rect class="cell" height="44.375" width="86.36697247706422" fill="white" stroke="#6B7279"/><polygon class="sidebar" transform="translate(0, 44.375)" points="0,0 12,0 12,0" fill="#6B7279" visibility="hidden"/><text font-size="12" fill="black"><tspan x="4" y="18.4375">Module</tspan><tspan x="4" y="32.9375">Firmware</tspan></text></g><g class="technique T0843" transform="translate(0, 310.625)"><rect class="cell" height="44.375" width="86.36697247706422" fill="white" stroke="#6B7279"/><polygon class="sidebar" transform="translate(0, 44.375)" points="0,0 12,0 12,0" fill="#6B7279" visibility="hidden"/><text font-size="12" fill="black"><tspan x="4" y="18.4375">Program</tspan><tspan x="4" y="32.9375">Download</tspan></text></g><g class="technique T0848" transform="translate(0, 355)"><rect class="cell" height="44.375" width="86.36697247706422" fill="white" stroke="#6B7279"/><polygon class="sidebar" transform="translate(0, 44.375)" points="0,0 12,0 12,0" fill="#6B7279" visibility="hidden"/><text font-size="11.833333333333334" fill="black"><tspan x="4" y="11.229166666666668">Rogue</tspan><tspan x="4" y="25.6875">Master</tspan><tspan x="4" y="40.145833333333336">Device</tspan></text></g><g class="technique T0881" transform="translate(0, 399.375)"><rect class="cell" height="44.375" width="86.36697247706422" fill="white" stroke="#6B7279"/><polygon class="sidebar" transform="translate(0, 44.375)" points="0,0 12,0 12,0" fill="#6B7279" visibility="hidden"/><text font-size="12" fill="black"><tspan x="4" y="18.4375">Service</tspan><tspan x="4" y="32.9375">Stop</tspan></text></g><g class="technique T0856" transform="translate(0, 443.75)"><rect class="cell" height="44.375" width="86.36697247706422" fill="white" stroke="#6B7279"/><polygon class="sidebar" transform="translate(0, 44.375)" points="0,0 12,0 12,0" fill="#6B7279" visibility="hidden"/><text font-size="11.833333333333334" fill="black"><tspan x="4" y="11.229166666666668">Spoof</tspan><tspan x="4" y="25.6875">Reporting</tspan><tspan x="4" y="40.145833333333336">Message</tspan></text></g><g class="technique T0855" transform="translate(0, 488.125)"><rect class="cell" height="44.375" width="86.36697247706422" fill="#756bb1" stroke="#6B7279"/><polygon class="sidebar" transform="translate(0, 44.375)" points="0,0 12,0 12,0" fill="#6B7279" visibility="hidden"/><text font-size="9.46934250764526" fill="white"><tspan x="4" y="10.229166666666668">Unauthorized</tspan><tspan x="4" y="24.6875">Command</tspan><tspan x="4" y="39.145833333333336">Message</tspan></text></g></g><g class="subtechniques"/><g class="tactic-label"><text font-size="11.833333333333334" fill="black" font-weight="bold"><tspan text-anchor="middle" x="43.18348623853211" y="11.229166666666668">Impair</tspan><tspan text-anchor="middle" x="43.18348623853211" y="25.6875">Process</tspan><tspan text-anchor="middle" x="43.18348623853211" y="40.145833333333336">Control</tspan></text></g></g><g class="tactic impact-ics" transform="translate(959.6330275229357, 0)"><g class="techniques"><g class="technique T0879" transform="translate(0, 44.375)"><rect class="cell" height="44.375" width="86.36697247706422" fill="white" stroke="#6B7279"/><polygon class="sidebar" transform="translate(0, 44.375)" points="0,0 12,0 12,0" fill="#6B7279" visibility="hidden"/><text font-size="12" fill="black"><tspan x="4" y="18.4375">Damage to</tspan><tspan x="4" y="32.9375">Property</tspan></text></g><g class="technique T0813" transform="translate(0, 88.75)"><rect class="cell" height="44.375" width="86.36697247706422" fill="white" stroke="#6B7279"/><polygon class="sidebar" transform="translate(0, 44.375)" points="0,0 12,0 12,0" fill="#6B7279" visibility="hidden"/><text font-size="12" fill="black"><tspan x="4" y="18.4375">Denial of</tspan><tspan x="4" y="32.9375">Control</tspan></text></g><g class="technique T0815" transform="translate(0, 133.125)"><rect class="cell" height="44.375" width="86.36697247706422" fill="white" stroke="#6B7279"/><polygon class="sidebar" transform="translate(0, 44.375)" points="0,0 12,0 12,0" fill="#6B7279" visibility="hidden"/><text font-size="12" fill="black"><tspan x="4" y="18.4375">Denial</tspan><tspan x="4" y="32.9375">of View</tspan></text></g><g class="technique T0826" transform="translate(0, 177.5)"><rect class="cell" height="44.375" width="86.36697247706422" fill="white" stroke="#6B7279"/><polygon class="sidebar" transform="translate(0, 44.375)" points="0,0 12,0 12,0" fill="#6B7279" visibility="hidden"/><text font-size="9.46934250764526" fill="black"><tspan x="4" y="17.4375">Loss of</tspan><tspan x="4" y="31.9375">Availability</tspan></text></g><g class="technique T0827" transform="translate(0, 221.875)"><rect class="cell" height="44.375" width="86.36697247706422" fill="white" stroke="#6B7279"/><polygon class="sidebar" transform="translate(0, 44.375)" points="0,0 12,0 12,0" fill="#6B7279" visibility="hidden"/><text font-size="12" fill="black"><tspan x="4" y="18.4375">Loss of</tspan><tspan x="4" y="32.9375">Control</tspan></text></g><g class="technique T0828" transform="translate(0, 266.25)"><rect class="cell" height="44.375" width="86.36697247706422" fill="white" stroke="#6B7279"/><polygon class="sidebar" transform="translate(0, 44.375)" points="0,0 12,0 12,0" fill="#6B7279" visibility="hidden"/><text font-size="9.46934250764526" fill="black"><tspan x="4" y="10.229166666666668">Loss of</tspan><tspan x="4" y="24.6875">Productivity</tspan><tspan x="4" y="39.145833333333336">and Revenue</tspan></text></g><g class="technique T0880" transform="translate(0, 310.625)"><rect class="cell" height="44.375" width="86.36697247706422" fill="#fce93b" stroke="#6B7279"/><polygon class="sidebar" transform="translate(0, 44.375)" points="0,0 12,0 12,0" fill="#6B7279" visibility="hidden"/><text font-size="12" fill="black"><tspan x="4" y="18.4375">Loss</tspan><tspan x="4" y="32.9375">of Safety</tspan></text></g><g class="technique T0829" transform="translate(0, 355)"><rect class="cell" height="44.375" width="86.36697247706422" fill="white" stroke="#6B7279"/><polygon class="sidebar" transform="translate(0, 44.375)" points="0,0 12,0 12,0" fill="#6B7279" visibility="hidden"/><text font-size="12" fill="black"><tspan x="4" y="18.4375">Loss</tspan><tspan x="4" y="32.9375">of View</tspan></text></g><g class="technique T0831" transform="translate(0, 399.375)"><rect class="cell" height="44.375" width="86.36697247706422" fill="#fce93b" stroke="#6B7279"/><polygon class="sidebar" transform="translate(0, 44.375)" points="0,0 12,0 12,0" fill="#6B7279" visibility="hidden"/><text font-size="9.46934250764526" fill="black"><tspan x="4" y="17.4375">Manipulation</tspan><tspan x="4" y="31.9375">of Control</tspan></text></g><g class="technique T0832" transform="translate(0, 443.75)"><rect class="cell" height="44.375" width="86.36697247706422" fill="white" stroke="#6B7279"/><polygon class="sidebar" transform="translate(0, 44.375)" points="0,0 12,0 12,0" fill="#6B7279" visibility="hidden"/><text font-size="9.46934250764526" fill="black"><tspan x="4" y="17.4375">Manipulation</tspan><tspan x="4" y="31.9375">of View</tspan></text></g><g class="technique T0882" transform="translate(0, 488.125)"><rect class="cell" height="44.375" width="86.36697247706422" fill="white" stroke="#6B7279"/><polygon class="sidebar" transform="translate(0, 44.375)" points="0,0 12,0 12,0" fill="#6B7279" visibility="hidden"/><text font-size="10.330191826522102" fill="black"><tspan x="4" y="11.229166666666668">Theft of</tspan><tspan x="4" y="25.6875">Operational</tspan><tspan x="4" y="40.145833333333336">Information</tspan></text></g></g><g class="subtechniques"/><g class="tactic-label"><text font-size="12" fill="black" font-weight="bold"><tspan text-anchor="middle" x="43.18348623853211" y="25.6875">Impact</tspan></text></g></g></g></g></g></svg>